<svg width="21" height="18" viewBox="0 0 21 18" fill="none" xmlns="http://www.w3.org/2000/svg">
<path fill-rule="evenodd" clip-rule="evenodd" d="M2.625 2.25C2.00368 2.25 1.5 2.75368 1.5 3.375V14.625C1.5 15.2463 2.00368 15.75 2.625 15.75H18.375C18.9963 15.75 19.5 15.2463 19.5 14.625V3.375C19.5 2.75368 18.9963 2.25 18.375 2.25H2.625ZM0 3.375C0 1.92525 1.17525 0.75 2.625 0.75H18.375C19.8247 0.75 21 1.92525 21 3.375V14.625C21 16.0747 19.8247 17.25 18.375 17.25H2.625C1.17525 17.25 0 16.0747 0 14.625V3.375Z" fill="#424242" fill-opacity="0.5"/>
<path fill-rule="evenodd" clip-rule="evenodd" d="M3.15802 4.03958C3.41232 3.71262 3.88353 3.65372 4.21049 3.90802L10.5 8.79989L16.7896 3.90802C17.1165 3.65372 17.5877 3.71262 17.842 4.03958C18.0964 4.36654 18.0375 4.83775 17.7105 5.09205L10.9605 10.342C10.6897 10.5527 10.3104 10.5527 10.0396 10.342L3.28958 5.09205C2.96262 4.83775 2.90372 4.36654 3.15802 4.03958Z" fill="#424242" fill-opacity="0.5"/>
</svg>
