<svg width="464" height="425" viewBox="0 0 464 425" fill="none" xmlns="http://www.w3.org/2000/svg">
<path d="M382.208 -24C469.424 -24 540.127 46.7027 540.127 133.919V488.664H242.066L437.838 297.707C458.895 277.168 459.315 243.448 438.776 222.391C418.237 201.334 384.517 200.914 363.46 221.453L104.499 474.044C100.028 478.405 96.487 483.361 93.8799 488.664H0V487.382C0.90417 486.61 1.78995 485.804 2.65332 484.962L215.747 277.11C236.804 256.571 237.224 222.85 216.685 201.793C196.146 180.736 162.425 180.317 141.368 200.855L0 338.746V133.919C2.82044e-05 46.7028 70.7028 -24 157.919 -24C201.772 -24 241.448 -6.12353 270.062 22.7373C298.677 -6.12409 338.355 -24 382.208 -24Z" fill="white" fill-opacity="0.03"/>
</svg>
