<svg width="252" height="71" viewBox="0 0 252 71" fill="none" xmlns="http://www.w3.org/2000/svg">
<path d="M0 20.2541C0 9.06805 9.06805 0 20.2541 0H230.896C242.082 0 251.15 9.06805 251.15 20.2541V70.4319H20.2541C9.06805 70.4319 0 61.3638 0 50.1778V20.2541Z" fill="#0E33C0"/>
<path d="M29.9333 31.3576C29.2244 31.3576 28.5675 31.23 27.9626 30.9748C27.3576 30.7101 26.8283 30.3462 26.3747 29.8831C25.9304 29.42 25.5854 28.8812 25.3397 28.2668C25.0939 27.6525 24.971 26.9955 24.971 26.2961C24.971 25.5872 25.0939 24.9256 25.3397 24.3112C25.5854 23.6968 25.9304 23.1628 26.3747 22.7091C26.8283 22.246 27.3529 21.8868 27.9484 21.6316C28.5533 21.3669 29.2102 21.2346 29.9191 21.2346C30.6942 21.2346 31.3747 21.3669 31.9607 21.6316C32.5467 21.8963 33.0666 22.2554 33.5203 22.7091L32.5987 23.6307C32.2868 23.281 31.904 23.0068 31.4503 22.8084C31.0061 22.6099 30.4957 22.5106 29.9191 22.5106C29.3993 22.5106 28.9219 22.6051 28.4872 22.7942C28.0524 22.9738 27.6743 23.2337 27.3529 23.574C27.0316 23.9142 26.7811 24.3159 26.6015 24.7791C26.4314 25.2422 26.3463 25.7479 26.3463 26.2961C26.3463 26.8443 26.4314 27.35 26.6015 27.8131C26.7811 28.2763 27.0316 28.678 27.3529 29.0183C27.6743 29.3585 28.0524 29.6232 28.4872 29.8122C28.9219 29.9918 29.3993 30.0816 29.9191 30.0816C30.5335 30.0816 31.0675 29.9823 31.5212 29.7839C31.9749 29.5759 32.3577 29.2971 32.6696 28.9474L33.5912 29.8547C33.1375 30.3273 32.6035 30.696 31.9891 30.9606C31.3842 31.2253 30.6989 31.3576 29.9333 31.3576ZM35.0015 31.2158V24.4813H36.2775V31.2158H35.0015ZM36.2775 27.3736L35.7955 27.161C35.7955 26.3008 35.994 25.6156 36.391 25.1052C36.7879 24.5948 37.3598 24.3396 38.1065 24.3396C38.4468 24.3396 38.7539 24.401 39.028 24.5239C39.3021 24.6373 39.5573 24.8311 39.7936 25.1052L38.9572 25.97C38.8154 25.8188 38.6594 25.7101 38.4893 25.6439C38.3192 25.5778 38.1207 25.5447 37.8938 25.5447C37.4212 25.5447 37.0337 25.6959 36.7312 25.9984C36.4288 26.3008 36.2775 26.7593 36.2775 27.3736ZM43.5897 31.3576C42.9186 31.3576 42.3136 31.2064 41.7749 30.9039C41.2361 30.592 40.8108 30.1714 40.4989 29.6421C40.187 29.1128 40.031 28.5126 40.031 27.8415C40.031 27.1799 40.1822 26.5844 40.4847 26.0551C40.7966 25.5258 41.2125 25.1099 41.7324 24.8074C42.2617 24.4955 42.8524 24.3396 43.5046 24.3396C44.1284 24.3396 44.6766 24.4813 45.1492 24.7649C45.6313 25.0485 46.0046 25.4407 46.2693 25.9417C46.5434 26.4426 46.6804 27.0097 46.6804 27.643C46.6804 27.7375 46.6757 27.8415 46.6662 27.9549C46.6568 28.0589 46.6379 28.1818 46.6095 28.3235H40.9242V27.2602H45.929L45.4611 27.6714C45.4611 27.2177 45.3808 26.8349 45.2201 26.523C45.0594 26.2016 44.8326 25.9558 44.5396 25.7857C44.2466 25.6061 43.8921 25.5163 43.4762 25.5163C43.0414 25.5163 42.6586 25.6108 42.3278 25.7999C41.997 25.9889 41.7418 26.2536 41.5622 26.5938C41.3826 26.9341 41.2928 27.3358 41.2928 27.799C41.2928 28.2716 41.3874 28.6874 41.5764 29.0466C41.7654 29.3963 42.0348 29.6704 42.3845 29.8689C42.7343 30.058 43.136 30.1525 43.5897 30.1525C43.9677 30.1525 44.3127 30.0863 44.6246 29.954C44.946 29.8217 45.2201 29.6232 45.447 29.3585L46.2693 30.195C45.9479 30.5731 45.5509 30.8614 45.0783 31.0599C44.6152 31.2584 44.119 31.3576 43.5897 31.3576ZM50.9357 31.3576C50.3213 31.3576 49.7636 31.2064 49.2627 30.9039C48.7617 30.592 48.3647 30.1714 48.0717 29.6421C47.7882 29.1128 47.6464 28.5173 47.6464 27.8557C47.6464 27.194 47.7882 26.5986 48.0717 26.0693C48.3647 25.54 48.757 25.1193 49.2485 24.8074C49.7494 24.4955 50.3118 24.3396 50.9357 24.3396C51.4461 24.3396 51.8998 24.4483 52.2967 24.6657C52.7032 24.8736 53.0293 25.1666 53.275 25.5447C53.5208 25.9133 53.6578 26.3434 53.6862 26.8349V28.8623C53.6578 29.3443 53.5208 29.7744 53.275 30.1525C53.0387 30.5306 52.7173 30.8283 52.3109 31.0457C51.9139 31.2536 51.4555 31.3576 50.9357 31.3576ZM51.1483 30.1525C51.7816 30.1525 52.292 29.9398 52.6795 29.5145C53.0671 29.0797 53.2608 28.5268 53.2608 27.8557C53.2608 27.3925 53.171 26.9908 52.9914 26.6506C52.8213 26.3008 52.5756 26.0315 52.2542 25.8424C51.9328 25.6439 51.5595 25.5447 51.1341 25.5447C50.7088 25.5447 50.3307 25.6439 49.9999 25.8424C49.6786 26.0409 49.4234 26.315 49.2343 26.6647C49.0547 27.005 48.9649 27.3973 48.9649 27.8415C48.9649 28.2952 49.0547 28.6969 49.2343 29.0466C49.4234 29.3869 49.6833 29.6563 50.0141 29.8547C50.3449 30.0532 50.723 30.1525 51.1483 30.1525ZM53.1758 31.2158V29.4011L53.4168 27.7564L53.1758 26.126V24.4813H54.4659V31.2158H53.1758ZM57.331 31.2158V21.66H58.607V31.2158H57.331ZM55.6722 25.6439V24.4813H60.2658V25.6439H55.6722ZM64.4272 31.3576C63.7561 31.3576 63.1512 31.2064 62.6124 30.9039C62.0737 30.592 61.6483 30.1714 61.3364 29.6421C61.0245 29.1128 60.8686 28.5126 60.8686 27.8415C60.8686 27.1799 61.0198 26.5844 61.3223 26.0551C61.6342 25.5258 62.0501 25.1099 62.5699 24.8074C63.0992 24.4955 63.69 24.3396 64.3421 24.3396C64.966 24.3396 65.5142 24.4813 65.9868 24.7649C66.4688 25.0485 66.8422 25.4407 67.1068 25.9417C67.3809 26.4426 67.518 27.0097 67.518 27.643C67.518 27.7375 67.5132 27.8415 67.5038 27.9549C67.4943 28.0589 67.4754 28.1818 67.4471 28.3235H61.7618V27.2602H66.7665L66.2987 27.6714C66.2987 27.2177 66.2183 26.8349 66.0577 26.523C65.897 26.2016 65.6701 25.9558 65.3771 25.7857C65.0841 25.6061 64.7297 25.5163 64.3138 25.5163C63.879 25.5163 63.4962 25.6108 63.1654 25.7999C62.8346 25.9889 62.5794 26.2536 62.3998 26.5938C62.2202 26.9341 62.1304 27.3358 62.1304 27.799C62.1304 28.2716 62.2249 28.6874 62.414 29.0466C62.603 29.3963 62.8724 29.6704 63.2221 29.8689C63.5718 30.058 63.9735 30.1525 64.4272 30.1525C64.8053 30.1525 65.1503 30.0863 65.4622 29.954C65.7836 29.8217 66.0577 29.6232 66.2845 29.3585L67.1068 30.195C66.7855 30.5731 66.3885 30.8614 65.9159 31.0599C65.4527 31.2584 64.9565 31.3576 64.4272 31.3576ZM71.8584 31.2158V24.4813H73.1344V31.2158H71.8584ZM76.4095 31.2158V27.1468C76.4095 26.6458 76.2535 26.2536 75.9416 25.97C75.6391 25.677 75.2563 25.5305 74.7932 25.5305C74.4813 25.5305 74.2025 25.5967 73.9567 25.729C73.711 25.8613 73.5125 26.0456 73.3612 26.2819C73.21 26.5182 73.1344 26.8018 73.1344 27.1326L72.6098 26.8774C72.6098 26.367 72.7185 25.9228 72.9359 25.5447C73.1627 25.1666 73.4699 24.8736 73.8575 24.6657C74.245 24.4483 74.6798 24.3396 75.1618 24.3396C75.6344 24.3396 76.0598 24.4435 76.4378 24.6515C76.8254 24.8594 77.1278 25.1524 77.3452 25.5305C77.5721 25.9086 77.6855 26.3575 77.6855 26.8774V31.2158H76.4095ZM80.9606 31.2158V27.1468C80.9606 26.6458 80.8046 26.2536 80.4927 25.97C80.1902 25.677 79.8122 25.5305 79.3585 25.5305C79.0465 25.5305 78.763 25.5967 78.5078 25.729C78.262 25.8613 78.0636 26.0456 77.9123 26.2819C77.7611 26.5182 77.6855 26.8018 77.6855 27.1326L76.9624 26.8774C76.9908 26.3575 77.1278 25.9133 77.3736 25.5447C77.6288 25.1666 77.9549 24.8736 78.3518 24.6657C78.7488 24.4483 79.1836 24.3396 79.6562 24.3396C80.1477 24.3396 80.5872 24.4435 80.9747 24.6515C81.3623 24.8594 81.6694 25.1524 81.8963 25.5305C82.1326 25.9086 82.2507 26.3623 82.2507 26.8916V31.2158H80.9606ZM87.1062 31.3576C86.4351 31.3576 85.8302 31.2064 85.2914 30.9039C84.7527 30.592 84.3274 30.1714 84.0154 29.6421C83.7035 29.1128 83.5476 28.5126 83.5476 27.8415C83.5476 27.1799 83.6988 26.5844 84.0013 26.0551C84.3132 25.5258 84.7291 25.1099 85.2489 24.8074C85.7782 24.4955 86.369 24.3396 87.0211 24.3396C87.645 24.3396 88.1932 24.4813 88.6658 24.7649C89.1478 25.0485 89.5212 25.4407 89.7858 25.9417C90.0599 26.4426 90.197 27.0097 90.197 27.643C90.197 27.7375 90.1923 27.8415 90.1828 27.9549C90.1733 28.0589 90.1544 28.1818 90.1261 28.3235H84.4408V27.2602H89.4456L88.9777 27.6714C88.9777 27.2177 88.8973 26.8349 88.7367 26.523C88.576 26.2016 88.3491 25.9558 88.0561 25.7857C87.7631 25.6061 87.4087 25.5163 86.9928 25.5163C86.558 25.5163 86.1752 25.6108 85.8444 25.7999C85.5136 25.9889 85.2584 26.2536 85.0788 26.5938C84.8992 26.9341 84.8094 27.3358 84.8094 27.799C84.8094 28.2716 84.9039 28.6874 85.093 29.0466C85.282 29.3963 85.5514 29.6704 85.9011 29.8689C86.2508 30.058 86.6525 30.1525 87.1062 30.1525C87.4843 30.1525 87.8293 30.0863 88.1412 29.954C88.4626 29.8217 88.7367 29.6232 88.9635 29.3585L89.7858 30.195C89.4645 30.5731 89.0675 30.8614 88.5949 31.0599C88.1317 31.2584 87.6355 31.3576 87.1062 31.3576ZM97.4013 31.3576C96.7869 31.3576 96.2293 31.2064 95.7283 30.9039C95.2274 30.592 94.8304 30.1714 94.5374 29.6421C94.2538 29.1128 94.1121 28.5173 94.1121 27.8557C94.1121 27.194 94.2538 26.5986 94.5374 26.0693C94.8304 25.54 95.2227 25.1193 95.7142 24.8074C96.2151 24.4955 96.7775 24.3396 97.4013 24.3396C97.9117 24.3396 98.3654 24.4483 98.7624 24.6657C99.1688 24.8736 99.4949 25.1666 99.7407 25.5447C99.9864 25.9133 100.123 26.3434 100.152 26.8349V28.8623C100.123 29.3443 99.9864 29.7744 99.7407 30.1525C99.5044 30.5306 99.183 30.8283 98.7766 31.0457C98.3796 31.2536 97.9212 31.3576 97.4013 31.3576ZM97.614 30.1525C98.2473 30.1525 98.7577 29.9398 99.1452 29.5145C99.5327 29.0797 99.7265 28.5268 99.7265 27.8557C99.7265 27.3925 99.6367 26.9908 99.4571 26.6506C99.287 26.3008 99.0412 26.0315 98.7199 25.8424C98.3985 25.6439 98.0251 25.5447 97.5998 25.5447C97.1745 25.5447 96.7964 25.6439 96.4656 25.8424C96.1442 26.0409 95.889 26.315 95.7 26.6647C95.5204 27.005 95.4306 27.3973 95.4306 27.8415C95.4306 28.2952 95.5204 28.6969 95.7 29.0466C95.889 29.3869 96.1489 29.6563 96.4798 29.8547C96.8106 30.0532 97.1886 30.1525 97.614 30.1525ZM99.6414 31.2158V29.4011L99.8824 27.7564L99.6414 26.126V24.4813H100.932V31.2158H99.6414ZM108.588 31.3576C107.964 31.3576 107.407 31.2064 106.915 30.9039C106.424 30.592 106.031 30.1714 105.738 29.6421C105.455 29.1128 105.313 28.5173 105.313 27.8557C105.313 27.194 105.455 26.5986 105.738 26.0693C106.031 25.54 106.424 25.1193 106.915 24.8074C107.407 24.4955 107.964 24.3396 108.588 24.3396C109.089 24.3396 109.543 24.4483 109.949 24.6657C110.356 24.8736 110.682 25.1666 110.928 25.5447C111.183 25.9133 111.325 26.3434 111.353 26.8349V28.8623C111.325 29.3443 111.187 29.7744 110.942 30.1525C110.696 30.5306 110.37 30.8283 109.963 31.0457C109.557 31.2536 109.099 31.3576 108.588 31.3576ZM108.801 30.1525C109.226 30.1525 109.595 30.0532 109.907 29.8547C110.228 29.6563 110.479 29.3869 110.658 29.0466C110.838 28.6969 110.928 28.2999 110.928 27.8557C110.928 27.3925 110.833 26.9908 110.644 26.6506C110.464 26.3103 110.214 26.0409 109.893 25.8424C109.581 25.6439 109.212 25.5447 108.787 25.5447C108.361 25.5447 107.988 25.6439 107.667 25.8424C107.345 26.0409 107.09 26.315 106.901 26.6647C106.721 27.005 106.632 27.3973 106.632 27.8415C106.632 28.2952 106.721 28.6969 106.901 29.0466C107.09 29.3869 107.345 29.6563 107.667 29.8547C107.997 30.0532 108.376 30.1525 108.801 30.1525ZM112.133 31.2158H110.842V29.4011L111.083 27.7564L110.842 26.126V21.0928H112.133V31.2158ZM113.99 31.2158V24.4813H115.266V31.2158H113.99ZM115.266 27.3736L114.784 27.161C114.784 26.3008 114.983 25.6156 115.38 25.1052C115.777 24.5948 116.349 24.3396 117.095 24.3396C117.436 24.3396 117.743 24.401 118.017 24.5239C118.291 24.6373 118.546 24.8311 118.782 25.1052L117.946 25.97C117.804 25.8188 117.648 25.7101 117.478 25.6439C117.308 25.5778 117.11 25.5447 116.883 25.5447C116.41 25.5447 116.023 25.6959 115.72 25.9984C115.418 26.3008 115.266 26.7593 115.266 27.3736ZM122.323 31.3576C121.709 31.3576 121.151 31.2064 120.65 30.9039C120.149 30.592 119.752 30.1714 119.459 29.6421C119.176 29.1128 119.034 28.5173 119.034 27.8557C119.034 27.194 119.176 26.5986 119.459 26.0693C119.752 25.54 120.145 25.1193 120.636 24.8074C121.137 24.4955 121.699 24.3396 122.323 24.3396C122.834 24.3396 123.287 24.4483 123.684 24.6657C124.091 24.8736 124.417 25.1666 124.663 25.5447C124.908 25.9133 125.045 26.3434 125.074 26.8349V28.8623C125.045 29.3443 124.908 29.7744 124.663 30.1525C124.426 30.5306 124.105 30.8283 123.699 31.0457C123.302 31.2536 122.843 31.3576 122.323 31.3576ZM122.536 30.1525C123.169 30.1525 123.68 29.9398 124.067 29.5145C124.455 29.0797 124.648 28.5268 124.648 27.8557C124.648 27.3925 124.559 26.9908 124.379 26.6506C124.209 26.3008 123.963 26.0315 123.642 25.8424C123.32 25.6439 122.947 25.5447 122.522 25.5447C122.096 25.5447 121.718 25.6439 121.388 25.8424C121.066 26.0409 120.811 26.315 120.622 26.6647C120.442 27.005 120.353 27.3973 120.353 27.8415C120.353 28.2952 120.442 28.6969 120.622 29.0466C120.811 29.3869 121.071 29.6563 121.402 29.8547C121.733 30.0532 122.111 30.1525 122.536 30.1525ZM124.563 31.2158V29.4011L124.804 27.7564L124.563 26.126V24.4813H125.854V31.2158H124.563ZM128.648 31.2158V23.4747C128.648 22.9738 128.756 22.539 128.974 22.1704C129.191 21.7923 129.489 21.4945 129.867 21.2772C130.255 21.0598 130.704 20.9511 131.214 20.9511C131.601 20.9511 131.937 21.0172 132.221 21.1496C132.504 21.2819 132.764 21.4756 133 21.7308L132.164 22.5532C132.041 22.4208 131.904 22.3216 131.753 22.2554C131.601 22.1798 131.417 22.142 131.2 22.142C130.793 22.142 130.477 22.2602 130.25 22.4964C130.032 22.7327 129.924 23.0588 129.924 23.4747V31.2158H128.648ZM126.989 25.6439V24.4813H132.065V25.6439H126.989ZM133.98 31.2158V21.66H135.256V31.2158H133.98ZM132.321 25.6439V24.4813H136.915V25.6439H132.321ZM144.19 31.3576C143.529 31.3576 142.929 31.2016 142.39 30.8897C141.861 30.5778 141.44 30.1572 141.128 29.6279C140.826 29.0891 140.674 28.4937 140.674 27.8415C140.674 27.1799 140.826 26.5844 141.128 26.0551C141.44 25.5258 141.861 25.1099 142.39 24.8074C142.929 24.4955 143.529 24.3396 144.19 24.3396C144.71 24.3396 145.192 24.4388 145.637 24.6373C146.081 24.8263 146.464 25.1052 146.785 25.4738L145.934 26.3245C145.726 26.0787 145.471 25.8944 145.169 25.7715C144.876 25.6392 144.55 25.573 144.19 25.573C143.765 25.573 143.387 25.6723 143.056 25.8708C142.725 26.0598 142.465 26.3245 142.276 26.6647C142.087 27.005 141.993 27.3973 141.993 27.8415C141.993 28.2857 142.087 28.678 142.276 29.0183C142.465 29.3585 142.725 29.6279 143.056 29.8264C143.387 30.0249 143.765 30.1241 144.19 30.1241C144.55 30.1241 144.876 30.0627 145.169 29.9398C145.471 29.8075 145.731 29.6185 145.948 29.3727L146.785 30.2234C146.473 30.5825 146.09 30.8614 145.637 31.0599C145.192 31.2584 144.71 31.3576 144.19 31.3576ZM150.776 31.3576C150.162 31.3576 149.604 31.2064 149.103 30.9039C148.602 30.592 148.205 30.1714 147.912 29.6421C147.628 29.1128 147.487 28.5173 147.487 27.8557C147.487 27.194 147.628 26.5986 147.912 26.0693C148.205 25.54 148.597 25.1193 149.089 24.8074C149.59 24.4955 150.152 24.3396 150.776 24.3396C151.286 24.3396 151.74 24.4483 152.137 24.6657C152.543 24.8736 152.869 25.1666 153.115 25.5447C153.361 25.9133 153.498 26.3434 153.526 26.8349V28.8623C153.498 29.3443 153.361 29.7744 153.115 30.1525C152.879 30.5306 152.558 30.8283 152.151 31.0457C151.754 31.2536 151.296 31.3576 150.776 31.3576ZM150.989 30.1525C151.622 30.1525 152.132 29.9398 152.52 29.5145C152.907 29.0797 153.101 28.5268 153.101 27.8557C153.101 27.3925 153.011 26.9908 152.832 26.6506C152.662 26.3008 152.416 26.0315 152.094 25.8424C151.773 25.6439 151.4 25.5447 150.974 25.5447C150.549 25.5447 150.171 25.6439 149.84 25.8424C149.519 26.0409 149.264 26.315 149.075 26.6647C148.895 27.005 148.805 27.3973 148.805 27.8415C148.805 28.2952 148.895 28.6969 149.075 29.0466C149.264 29.3869 149.524 29.6563 149.854 29.8547C150.185 30.0532 150.563 30.1525 150.989 30.1525ZM153.016 31.2158V29.4011L153.257 27.7564L153.016 26.126V24.4813H154.306V31.2158H153.016ZM158.305 31.3576C157.927 31.3576 157.568 31.3103 157.227 31.2158C156.896 31.1118 156.589 30.9701 156.306 30.7905C156.022 30.6014 155.776 30.3793 155.568 30.1241L156.391 29.3018C156.637 29.6043 156.92 29.8311 157.241 29.9823C157.563 30.1241 157.922 30.195 158.319 30.195C158.716 30.195 159.023 30.1289 159.241 29.9965C159.458 29.8547 159.567 29.661 159.567 29.4152C159.567 29.1695 159.477 28.9804 159.297 28.8481C159.127 28.7063 158.905 28.5929 158.631 28.5079C158.357 28.4133 158.064 28.3235 157.752 28.2385C157.449 28.144 157.161 28.0258 156.887 27.884C156.613 27.7422 156.386 27.5485 156.206 27.3027C156.036 27.057 155.951 26.7309 155.951 26.3245C155.951 25.918 156.051 25.5683 156.249 25.2753C156.447 24.9728 156.722 24.7413 157.071 24.5806C157.43 24.4199 157.861 24.3396 158.361 24.3396C158.891 24.3396 159.359 24.4341 159.765 24.6231C160.181 24.8027 160.521 25.0768 160.786 25.4454L159.964 26.2678C159.775 26.022 159.538 25.833 159.255 25.7006C158.981 25.5683 158.669 25.5021 158.319 25.5021C157.95 25.5021 157.667 25.5683 157.468 25.7006C157.279 25.8235 157.185 25.9984 157.185 26.2252C157.185 26.4521 157.27 26.6269 157.44 26.7498C157.61 26.8727 157.832 26.9766 158.106 27.0617C158.39 27.1468 158.683 27.2366 158.985 27.3311C159.288 27.4162 159.576 27.5343 159.85 27.6855C160.124 27.8368 160.346 28.04 160.517 28.2952C160.696 28.5504 160.786 28.8859 160.786 29.3018C160.786 29.9351 160.559 30.436 160.105 30.8047C159.661 31.1733 159.061 31.3576 158.305 31.3576ZM165.334 31.3576C164.662 31.3576 164.058 31.2064 163.519 30.9039C162.98 30.592 162.555 30.1714 162.243 29.6421C161.931 29.1128 161.775 28.5126 161.775 27.8415C161.775 27.1799 161.926 26.5844 162.229 26.0551C162.541 25.5258 162.956 25.1099 163.476 24.8074C164.006 24.4955 164.596 24.3396 165.248 24.3396C165.872 24.3396 166.421 24.4813 166.893 24.7649C167.375 25.0485 167.749 25.4407 168.013 25.9417C168.287 26.4426 168.424 27.0097 168.424 27.643C168.424 27.7375 168.42 27.8415 168.41 27.9549C168.401 28.0589 168.382 28.1818 168.353 28.3235H162.668V27.2602H167.673L167.205 27.6714C167.205 27.2177 167.125 26.8349 166.964 26.523C166.803 26.2016 166.576 25.9558 166.283 25.7857C165.99 25.6061 165.636 25.5163 165.22 25.5163C164.785 25.5163 164.403 25.6108 164.072 25.7999C163.741 25.9889 163.486 26.2536 163.306 26.5938C163.127 26.9341 163.037 27.3358 163.037 27.799C163.037 28.2716 163.131 28.6874 163.32 29.0466C163.509 29.3963 163.779 29.6704 164.128 29.8689C164.478 30.058 164.88 30.1525 165.334 30.1525C165.712 30.1525 166.057 30.0863 166.369 29.954C166.69 29.8217 166.964 29.6232 167.191 29.3585L168.013 30.195C167.692 30.5731 167.295 30.8614 166.822 31.0599C166.359 31.2584 165.863 31.3576 165.334 31.3576ZM173.729 31.2158V23.4747C173.729 22.9738 173.838 22.539 174.055 22.1704C174.272 21.7923 174.57 21.4945 174.948 21.2772C175.336 21.0598 175.785 20.9511 176.295 20.9511C176.683 20.9511 177.018 21.0172 177.302 21.1496C177.585 21.2819 177.845 21.4756 178.081 21.7308L177.245 22.5532C177.122 22.4208 176.985 22.3216 176.834 22.2554C176.683 22.1798 176.498 22.142 176.281 22.142C175.874 22.142 175.558 22.2602 175.331 22.4964C175.114 22.7327 175.005 23.0588 175.005 23.4747V31.2158H173.729ZM172.07 25.6439V24.4813H177.146V25.6439H172.07ZM181.116 31.3576C180.455 31.3576 179.859 31.2016 179.33 30.8897C178.801 30.5778 178.38 30.1572 178.068 29.6279C177.756 29.0891 177.6 28.4889 177.6 27.8273C177.6 27.1751 177.756 26.5891 178.068 26.0693C178.38 25.54 178.801 25.1193 179.33 24.8074C179.859 24.4955 180.455 24.3396 181.116 24.3396C181.769 24.3396 182.359 24.4955 182.889 24.8074C183.427 25.1099 183.853 25.5258 184.165 26.0551C184.477 26.5844 184.633 27.1751 184.633 27.8273C184.633 28.4889 184.477 29.0891 184.165 29.6279C183.853 30.1572 183.427 30.5778 182.889 30.8897C182.359 31.2016 181.769 31.3576 181.116 31.3576ZM181.116 30.1241C181.542 30.1241 181.92 30.0249 182.251 29.8264C182.582 29.6279 182.841 29.3585 183.03 29.0183C183.22 28.6685 183.314 28.2716 183.314 27.8273C183.314 27.3925 183.215 27.005 183.016 26.6647C182.827 26.3245 182.567 26.0598 182.237 25.8708C181.915 25.6723 181.542 25.573 181.116 25.573C180.691 25.573 180.313 25.6723 179.982 25.8708C179.651 26.0598 179.392 26.3245 179.202 26.6647C179.013 27.005 178.919 27.3925 178.919 27.8273C178.919 28.2716 179.013 28.6685 179.202 29.0183C179.392 29.3585 179.651 29.6279 179.982 29.8264C180.313 30.0249 180.691 30.1241 181.116 30.1241ZM186.07 31.2158V24.4813H187.346V31.2158H186.07ZM187.346 27.3736L186.864 27.161C186.864 26.3008 187.063 25.6156 187.46 25.1052C187.857 24.5948 188.429 24.3396 189.175 24.3396C189.516 24.3396 189.823 24.401 190.097 24.5239C190.371 24.6373 190.626 24.8311 190.862 25.1052L190.026 25.97C189.884 25.8188 189.728 25.7101 189.558 25.6439C189.388 25.5778 189.189 25.5447 188.963 25.5447C188.49 25.5447 188.102 25.6959 187.8 25.9984C187.498 26.3008 187.346 26.7593 187.346 27.3736ZM28.7849 49.3576C28.2745 49.3576 27.8113 49.2536 27.3955 49.0457C26.989 48.8283 26.6629 48.5306 26.4172 48.1525C26.1714 47.7744 26.0344 47.3443 26.006 46.8623V44.8349C26.0344 44.3434 26.1714 43.9133 26.4172 43.5447C26.6724 43.1666 27.0032 42.8736 27.4096 42.6657C27.8255 42.4483 28.2839 42.3396 28.7849 42.3396C29.3993 42.3396 29.9522 42.4955 30.4437 42.8074C30.9446 43.1193 31.3369 43.54 31.6205 44.0693C31.904 44.5986 32.0458 45.194 32.0458 45.8557C32.0458 46.5173 31.904 47.1128 31.6205 47.6421C31.3369 48.1714 30.9446 48.592 30.4437 48.9039C29.9522 49.2064 29.3993 49.3576 28.7849 49.3576ZM25.2404 52.0372V42.4813H26.5164V44.2536L26.2754 45.884L26.5164 47.5287V52.0372H25.2404ZM28.5722 48.1525C28.9976 48.1525 29.3709 48.0532 29.6923 47.8547C30.0136 47.6563 30.2688 47.3869 30.4579 47.0466C30.6469 46.6969 30.7414 46.2952 30.7414 45.8415C30.7414 45.3973 30.6469 45.0003 30.4579 44.6506C30.2688 44.3008 30.0136 44.0315 29.6923 43.8424C29.3709 43.6439 29.0023 43.5447 28.5864 43.5447C28.1611 43.5447 27.7877 43.6439 27.4663 43.8424C27.145 44.0315 26.8945 44.3008 26.7149 44.6506C26.5353 45.0003 26.4455 45.402 26.4455 45.8557C26.4455 46.2999 26.5306 46.6969 26.7007 47.0466C26.8803 47.3869 27.1308 47.6563 27.4522 47.8547C27.783 48.0532 28.1563 48.1525 28.5722 48.1525ZM36.569 49.3576C35.9073 49.3576 35.3119 49.2016 34.7826 48.8897C34.2532 48.5778 33.8326 48.1572 33.5207 47.6279C33.2088 47.0891 33.0529 46.4889 33.0529 45.8273C33.0529 45.1751 33.2088 44.5891 33.5207 44.0693C33.8326 43.54 34.2532 43.1193 34.7826 42.8074C35.3119 42.4955 35.9073 42.3396 36.569 42.3396C37.2211 42.3396 37.8119 42.4955 38.3412 42.8074C38.88 43.1099 39.3053 43.5258 39.6172 44.0551C39.9291 44.5844 40.0851 45.1751 40.0851 45.8273C40.0851 46.4889 39.9291 47.0891 39.6172 47.6279C39.3053 48.1572 38.88 48.5778 38.3412 48.8897C37.8119 49.2016 37.2211 49.3576 36.569 49.3576ZM36.569 48.1241C36.9943 48.1241 37.3724 48.0249 37.7032 47.8264C38.034 47.6279 38.2939 47.3585 38.483 47.0183C38.672 46.6685 38.7665 46.2716 38.7665 45.8273C38.7665 45.3925 38.6673 45.005 38.4688 44.6647C38.2798 44.3245 38.0198 44.0598 37.689 43.8708C37.3676 43.6723 36.9943 43.573 36.569 43.573C36.1436 43.573 35.7656 43.6723 35.4347 43.8708C35.1039 44.0598 34.844 44.3245 34.655 44.6647C34.4659 45.005 34.3714 45.3925 34.3714 45.8273C34.3714 46.2716 34.4659 46.6685 34.655 47.0183C34.844 47.3585 35.1039 47.6279 35.4347 47.8264C35.7656 48.0249 36.1436 48.1241 36.569 48.1241ZM43.6636 49.3576C43.2856 49.3576 42.9264 49.3103 42.5861 49.2158C42.2553 49.1118 41.9481 48.9701 41.6646 48.7905C41.381 48.6014 41.1353 48.3793 40.9273 48.1241L41.7496 47.3018C41.9954 47.6043 42.2789 47.8311 42.6003 47.9823C42.9217 48.1241 43.2808 48.195 43.6778 48.195C44.0748 48.195 44.382 48.1289 44.5994 47.9965C44.8168 47.8547 44.9255 47.661 44.9255 47.4152C44.9255 47.1695 44.8357 46.9804 44.6561 46.8481C44.486 46.7063 44.2638 46.5929 43.9897 46.5079C43.7156 46.4133 43.4226 46.3235 43.1107 46.2385C42.8082 46.144 42.52 46.0258 42.2459 45.884C41.9718 45.7422 41.7449 45.5485 41.5653 45.3027C41.3952 45.057 41.3101 44.7309 41.3101 44.3245C41.3101 43.918 41.4094 43.5683 41.6079 43.2753C41.8063 42.9728 42.0805 42.7413 42.4302 42.5806C42.7893 42.4199 43.2194 42.3396 43.7204 42.3396C44.2497 42.3396 44.7175 42.4341 45.124 42.6231C45.5398 42.8027 45.8801 43.0768 46.1448 43.4454L45.3225 44.2678C45.1334 44.022 44.8971 43.833 44.6136 43.7006C44.3395 43.5683 44.0275 43.5021 43.6778 43.5021C43.3092 43.5021 43.0256 43.5683 42.8272 43.7006C42.6381 43.8235 42.5436 43.9984 42.5436 44.2252C42.5436 44.4521 42.6287 44.6269 42.7988 44.7498C42.9689 44.8727 43.191 44.9766 43.4652 45.0617C43.7487 45.1468 44.0417 45.2366 44.3442 45.3311C44.6466 45.4162 44.9349 45.5343 45.209 45.6855C45.4831 45.8368 45.7053 46.04 45.8754 46.2952C46.055 46.5504 46.1448 46.8859 46.1448 47.3018C46.1448 47.9351 45.9179 48.436 45.4642 48.8047C45.02 49.1733 44.4198 49.3576 43.6636 49.3576ZM48.6083 49.2158V39.66H49.8843V49.2158H48.6083ZM46.9495 43.6439V42.4813H51.5431V43.6439H46.9495ZM55.3784 52.179C54.6884 52.179 54.0741 52.0514 53.5353 51.7962C53.006 51.541 52.5807 51.1818 52.2593 50.7187L53.0816 49.8822C53.3557 50.2319 53.6818 50.4966 54.0599 50.6761C54.438 50.8652 54.8869 50.9597 55.4068 50.9597C56.0968 50.9597 56.6402 50.7754 57.0372 50.4068C57.4437 50.0476 57.6469 49.5608 57.6469 48.9464V47.2735L57.8737 45.7564L57.6469 44.2536V42.4813H58.9229V48.9464C58.9229 49.5892 58.7716 50.1516 58.4692 50.6336C58.1762 51.1157 57.7603 51.4937 57.2215 51.7678C56.6922 52.0419 56.0779 52.179 55.3784 52.179ZM55.3784 49.1024C54.764 49.1024 54.2111 48.9559 53.7196 48.6629C53.2376 48.3699 52.8548 47.9682 52.5712 47.4578C52.2876 46.9379 52.1459 46.3566 52.1459 45.7139C52.1459 45.0712 52.2876 44.4993 52.5712 43.9984C52.8548 43.488 53.2376 43.0863 53.7196 42.7933C54.2111 42.4908 54.764 42.3396 55.3784 42.3396C55.9077 42.3396 56.3756 42.4435 56.782 42.6515C57.1885 42.8594 57.5098 43.1524 57.7461 43.5305C57.9919 43.8991 58.1242 44.3339 58.1431 44.8349V46.6213C58.1147 47.1128 57.9777 47.5476 57.7319 47.9256C57.4956 48.2943 57.1743 48.5825 56.7678 48.7905C56.3614 48.9984 55.8983 49.1024 55.3784 49.1024ZM55.6336 47.8973C56.0495 47.8973 56.4134 47.8075 56.7253 47.6279C57.0467 47.4483 57.2924 47.1978 57.4626 46.8765C57.6327 46.5457 57.7178 46.1629 57.7178 45.7281C57.7178 45.2933 57.628 44.9152 57.4484 44.5938C57.2782 44.263 57.0372 44.0078 56.7253 43.8282C56.4134 43.6392 56.0448 43.5447 55.6194 43.5447C55.1941 43.5447 54.8208 43.6392 54.4994 43.8282C54.178 44.0078 53.9228 44.263 53.7338 44.5938C53.5542 44.9152 53.4644 45.2886 53.4644 45.7139C53.4644 46.1392 53.5542 46.5173 53.7338 46.8481C53.9228 47.1789 54.178 47.4389 54.4994 47.6279C54.8302 47.8075 55.2083 47.8973 55.6336 47.8973ZM60.7958 49.2158V42.4813H62.0718V49.2158H60.7958ZM62.0718 45.3736L61.5898 45.161C61.5898 44.3008 61.7882 43.6156 62.1852 43.1052C62.5822 42.5948 63.154 42.3396 63.9007 42.3396C64.241 42.3396 64.5482 42.401 64.8223 42.5239C65.0964 42.6373 65.3516 42.8311 65.5879 43.1052L64.7514 43.97C64.6096 43.8188 64.4537 43.7101 64.2835 43.6439C64.1134 43.5778 63.9149 43.5447 63.6881 43.5447C63.2155 43.5447 62.8279 43.6959 62.5255 43.9984C62.223 44.3008 62.0718 44.7593 62.0718 45.3736ZM69.1287 49.3576C68.5143 49.3576 67.9567 49.2064 67.4557 48.9039C66.9548 48.592 66.5578 48.1714 66.2648 47.6421C65.9812 47.1128 65.8394 46.5173 65.8394 45.8557C65.8394 45.194 65.9812 44.5986 66.2648 44.0693C66.5578 43.54 66.95 43.1193 67.4415 42.8074C67.9425 42.4955 68.5049 42.3396 69.1287 42.3396C69.6391 42.3396 70.0928 42.4483 70.4898 42.6657C70.8962 42.8736 71.2223 43.1666 71.468 43.5447C71.7138 43.9133 71.8509 44.3434 71.8792 44.8349V46.8623C71.8509 47.3443 71.7138 47.7744 71.468 48.1525C71.2318 48.5306 70.9104 48.8283 70.504 49.0457C70.107 49.2536 69.6486 49.3576 69.1287 49.3576ZM69.3414 48.1525C69.9747 48.1525 70.4851 47.9398 70.8726 47.5145C71.2601 47.0797 71.4539 46.5268 71.4539 45.8557C71.4539 45.3925 71.3641 44.9908 71.1845 44.6506C71.0144 44.3008 70.7686 44.0315 70.4472 43.8424C70.1259 43.6439 69.7525 43.5447 69.3272 43.5447C68.9019 43.5447 68.5238 43.6439 68.193 43.8424C67.8716 44.0409 67.6164 44.315 67.4274 44.6647C67.2478 45.005 67.158 45.3973 67.158 45.8415C67.158 46.2952 67.2478 46.6969 67.4274 47.0466C67.6164 47.3869 67.8763 47.6563 68.2071 47.8547C68.538 48.0532 68.916 48.1525 69.3414 48.1525ZM71.3688 49.2158V47.4011L71.6098 45.7564L71.3688 44.126V42.4813H72.659V49.2158H71.3688ZM77.3665 49.3576C76.7427 49.3576 76.185 49.2064 75.6935 48.9039C75.202 48.592 74.8097 48.1714 74.5167 47.6421C74.2332 47.1128 74.0914 46.5173 74.0914 45.8557C74.0914 45.194 74.2332 44.5986 74.5167 44.0693C74.8097 43.54 75.202 43.1193 75.6935 42.8074C76.185 42.4955 76.7427 42.3396 77.3665 42.3396C77.8674 42.3396 78.3211 42.4483 78.7276 42.6657C79.134 42.8736 79.4601 43.1666 79.7058 43.5447C79.961 43.9133 80.1028 44.3434 80.1312 44.8349V46.8623C80.1028 47.3443 79.9657 47.7744 79.72 48.1525C79.4742 48.5306 79.1482 48.8283 78.7417 49.0457C78.3353 49.2536 77.8769 49.3576 77.3665 49.3576ZM77.5791 48.1525C78.0045 48.1525 78.3731 48.0532 78.685 47.8547C79.0064 47.6563 79.2569 47.3869 79.4364 47.0466C79.616 46.6969 79.7058 46.2999 79.7058 45.8557C79.7058 45.3925 79.6113 44.9908 79.4223 44.6506C79.2427 44.3103 78.9922 44.0409 78.6708 43.8424C78.3589 43.6439 77.9903 43.5447 77.565 43.5447C77.1396 43.5447 76.7663 43.6439 76.4449 43.8424C76.1236 44.0409 75.8684 44.315 75.6793 44.6647C75.4997 45.005 75.4099 45.3973 75.4099 45.8415C75.4099 46.2952 75.4997 46.6969 75.6793 47.0466C75.8684 47.3869 76.1236 47.6563 76.4449 47.8547C76.7757 48.0532 77.1538 48.1525 77.5791 48.1525ZM80.9109 49.2158H79.6208V47.4011L79.8618 45.7564L79.6208 44.126V39.0928H80.9109V49.2158ZM85.4766 49.3576C84.9284 49.3576 84.4322 49.2347 83.988 48.989C83.5532 48.7338 83.2129 48.3841 82.9672 47.9398C82.7214 47.4956 82.5985 46.9804 82.5985 46.3944V42.4813H83.8745V46.3377C83.8745 46.7063 83.936 47.0277 84.0589 47.3018C84.1912 47.5665 84.3802 47.7697 84.626 47.9115C84.8717 48.0532 85.16 48.1241 85.4908 48.1241C85.9918 48.1241 86.384 47.9682 86.6676 47.6563C86.9511 47.3349 87.0929 46.8954 87.0929 46.3377V42.4813H88.3689V46.3944C88.3689 46.9804 88.246 47.4956 88.0003 47.9398C87.7546 48.3841 87.4143 48.7338 86.9795 48.989C86.5542 49.2347 86.0532 49.3576 85.4766 49.3576ZM92.943 49.3576C92.3287 49.3576 91.771 49.2064 91.2701 48.9039C90.7691 48.592 90.3721 48.1714 90.0791 47.6421C89.7956 47.1128 89.6538 46.5173 89.6538 45.8557C89.6538 45.194 89.7956 44.5986 90.0791 44.0693C90.3721 43.54 90.7644 43.1193 91.2559 42.8074C91.7568 42.4955 92.3192 42.3396 92.943 42.3396C93.4535 42.3396 93.9071 42.4483 94.3041 42.6657C94.7106 42.8736 95.0366 43.1666 95.2824 43.5447C95.5281 43.9133 95.6652 44.3434 95.6935 44.8349V46.8623C95.6652 47.3443 95.5281 47.7744 95.2824 48.1525C95.0461 48.5306 94.7247 48.8283 94.3183 49.0457C93.9213 49.2536 93.4629 49.3576 92.943 49.3576ZM93.1557 48.1525C93.789 48.1525 94.2994 47.9398 94.6869 47.5145C95.0745 47.0797 95.2682 46.5268 95.2682 45.8557C95.2682 45.3925 95.1784 44.9908 94.9988 44.6506C94.8287 44.3008 94.583 44.0315 94.2616 43.8424C93.9402 43.6439 93.5669 43.5447 93.1415 43.5447C92.7162 43.5447 92.3381 43.6439 92.0073 43.8424C91.6859 44.0409 91.4307 44.315 91.2417 44.6647C91.0621 45.005 90.9723 45.3973 90.9723 45.8415C90.9723 46.2952 91.0621 46.6969 91.2417 47.0466C91.4307 47.3869 91.6907 47.6563 92.0215 47.8547C92.3523 48.0532 92.7304 48.1525 93.1557 48.1525ZM95.1831 49.2158V47.4011L95.4242 45.7564L95.1831 44.126V42.4813H96.4733V49.2158H95.1831ZM99.3384 49.2158V39.66H100.614V49.2158H99.3384ZM97.6796 43.6439V42.4813H102.273V43.6439H97.6796ZM106.435 49.3576C105.764 49.3576 105.159 49.2064 104.62 48.9039C104.081 48.592 103.656 48.1714 103.344 47.6421C103.032 47.1128 102.876 46.5126 102.876 45.8415C102.876 45.1799 103.027 44.5844 103.33 44.0551C103.642 43.5258 104.057 43.1099 104.577 42.8074C105.107 42.4955 105.697 42.3396 106.35 42.3396C106.973 42.3396 107.522 42.4813 107.994 42.7649C108.476 43.0485 108.85 43.4407 109.114 43.9417C109.388 44.4426 109.525 45.0097 109.525 45.643C109.525 45.7375 109.521 45.8415 109.511 45.9549C109.502 46.0589 109.483 46.1818 109.454 46.3235H103.769V45.2602H108.774L108.306 45.6714C108.306 45.2177 108.226 44.8349 108.065 44.523C107.904 44.2016 107.678 43.9558 107.385 43.7857C107.091 43.6061 106.737 43.5163 106.321 43.5163C105.886 43.5163 105.504 43.6108 105.173 43.7999C104.842 43.9889 104.587 44.2536 104.407 44.5938C104.228 44.9341 104.138 45.3358 104.138 45.799C104.138 46.2716 104.232 46.6874 104.421 47.0466C104.61 47.3963 104.88 47.6704 105.229 47.8689C105.579 48.058 105.981 48.1525 106.435 48.1525C106.813 48.1525 107.158 48.0863 107.47 47.954C107.791 47.8217 108.065 47.6232 108.292 47.3585L109.114 48.195C108.793 48.5731 108.396 48.8614 107.923 49.0599C107.46 49.2584 106.964 49.3576 106.435 49.3576ZM117.311 49.2158L113.37 39.3764H114.816L118.062 47.6988H117.538L120.813 39.3764H122.245L118.275 49.2158H117.311ZM123.854 49.2158V39.3764H125.186V49.2158H123.854ZM130.051 49.3576C129.276 49.3576 128.615 49.2158 128.067 48.9323C127.518 48.6487 127.032 48.2375 126.606 47.6988L127.514 46.7914C127.826 47.2262 128.185 47.557 128.591 47.7839C128.998 48.0013 129.499 48.1099 130.094 48.1099C130.68 48.1099 131.148 47.9823 131.498 47.7271C131.857 47.4719 132.036 47.1222 132.036 46.678C132.036 46.3094 131.951 46.0116 131.781 45.7848C131.611 45.5579 131.379 45.3736 131.086 45.2318C130.803 45.0806 130.491 44.9483 130.151 44.8349C129.81 44.712 129.47 44.5844 129.13 44.4521C128.79 44.3103 128.478 44.1402 128.194 43.9417C127.911 43.7337 127.679 43.4643 127.499 43.1335C127.329 42.8027 127.244 42.3868 127.244 41.8859C127.244 41.3282 127.377 40.8556 127.641 40.4681C127.915 40.0711 128.284 39.7687 128.747 39.5607C129.22 39.3433 129.749 39.2346 130.335 39.2346C130.978 39.2346 131.554 39.3622 132.065 39.6174C132.575 39.8632 132.991 40.1893 133.312 40.5957L132.405 41.5031C132.112 41.1628 131.795 40.9076 131.455 40.7375C131.124 40.5673 130.741 40.4823 130.307 40.4823C129.777 40.4823 129.357 40.6004 129.045 40.8367C128.733 41.0636 128.577 41.3849 128.577 41.8008C128.577 42.1316 128.662 42.401 128.832 42.6089C129.012 42.8074 129.243 42.9776 129.527 43.1193C129.81 43.2611 130.122 43.3935 130.463 43.5163C130.812 43.6298 131.157 43.7574 131.498 43.8991C131.838 44.0409 132.15 44.2205 132.433 44.4379C132.717 44.6553 132.944 44.9388 133.114 45.2886C133.293 45.6288 133.383 46.0589 133.383 46.5787C133.383 47.4483 133.081 48.1289 132.476 48.6204C131.88 49.1118 131.072 49.3576 130.051 49.3576ZM134.138 49.2158L138.164 39.3764H139.128L143.141 49.2158H141.695L138.391 40.8934H138.887L135.556 49.2158H134.138ZM136.052 46.9899V45.8273H141.227V46.9899H136.052ZM149.917 49.3576C149.303 49.3576 148.745 49.2064 148.244 48.9039C147.744 48.592 147.347 48.1714 147.054 47.6421C146.77 47.1128 146.628 46.5173 146.628 45.8557C146.628 45.194 146.77 44.5986 147.054 44.0693C147.347 43.54 147.739 43.1193 148.23 42.8074C148.731 42.4955 149.294 42.3396 149.917 42.3396C150.428 42.3396 150.882 42.4483 151.279 42.6657C151.685 42.8736 152.011 43.1666 152.257 43.5447C152.503 43.9133 152.64 44.3434 152.668 44.8349V46.8623C152.64 47.3443 152.503 47.7744 152.257 48.1525C152.021 48.5306 151.699 48.8283 151.293 49.0457C150.896 49.2536 150.437 49.3576 149.917 49.3576ZM150.13 48.1525C150.763 48.1525 151.274 47.9398 151.661 47.5145C152.049 47.0797 152.243 46.5268 152.243 45.8557C152.243 45.3925 152.153 44.9908 151.973 44.6506C151.803 44.3008 151.557 44.0315 151.236 43.8424C150.915 43.6439 150.541 43.5447 150.116 43.5447C149.691 43.5447 149.313 43.6439 148.982 43.8424C148.66 44.0409 148.405 44.315 148.216 44.6647C148.037 45.005 147.947 45.3973 147.947 45.8415C147.947 46.2952 148.037 46.6969 148.216 47.0466C148.405 47.3869 148.665 47.6563 148.996 47.8547C149.327 48.0532 149.705 48.1525 150.13 48.1525ZM152.158 49.2158V47.4011L152.399 45.7564L152.158 44.126V42.4813H153.448V49.2158H152.158ZM158.85 49.3576C158.34 49.3576 157.876 49.2536 157.461 49.0457C157.054 48.8283 156.728 48.5306 156.482 48.1525C156.237 47.7744 156.099 47.3443 156.071 46.8623V44.8349C156.099 44.3434 156.237 43.9133 156.482 43.5447C156.737 43.1666 157.068 42.8736 157.475 42.6657C157.891 42.4483 158.349 42.3396 158.85 42.3396C159.464 42.3396 160.017 42.4955 160.509 42.8074C161.01 43.1193 161.402 43.54 161.686 44.0693C161.969 44.5986 162.111 45.194 162.111 45.8557C162.111 46.5173 161.969 47.1128 161.686 47.6421C161.402 48.1714 161.01 48.592 160.509 48.9039C160.017 49.2064 159.464 49.3576 158.85 49.3576ZM155.306 52.0372V42.4813H156.582V44.2536L156.34 45.884L156.582 47.5287V52.0372H155.306ZM158.637 48.1525C159.063 48.1525 159.436 48.0532 159.757 47.8547C160.079 47.6563 160.334 47.3869 160.523 47.0466C160.712 46.6969 160.807 46.2952 160.807 45.8415C160.807 45.3973 160.712 45.0003 160.523 44.6506C160.334 44.3008 160.079 44.0315 159.757 43.8424C159.436 43.6439 159.067 43.5447 158.651 43.5447C158.226 43.5447 157.853 43.6439 157.531 43.8424C157.21 44.0315 156.96 44.3008 156.78 44.6506C156.6 45.0003 156.511 45.402 156.511 45.8557C156.511 46.2999 156.596 46.6969 156.766 47.0466C156.945 47.3869 157.196 47.6563 157.517 47.8547C157.848 48.0532 158.221 48.1525 158.637 48.1525ZM167.102 49.3576C166.591 49.3576 166.128 49.2536 165.712 49.0457C165.306 48.8283 164.98 48.5306 164.734 48.1525C164.488 47.7744 164.351 47.3443 164.323 46.8623V44.8349C164.351 44.3434 164.488 43.9133 164.734 43.5447C164.989 43.1666 165.32 42.8736 165.727 42.6657C166.143 42.4483 166.601 42.3396 167.102 42.3396C167.716 42.3396 168.269 42.4955 168.761 42.8074C169.262 43.1193 169.654 43.54 169.937 44.0693C170.221 44.5986 170.363 45.194 170.363 45.8557C170.363 46.5173 170.221 47.1128 169.937 47.6421C169.654 48.1714 169.262 48.592 168.761 48.9039C168.269 49.2064 167.716 49.3576 167.102 49.3576ZM163.557 52.0372V42.4813H164.833V44.2536L164.592 45.884L164.833 47.5287V52.0372H163.557ZM166.889 48.1525C167.315 48.1525 167.688 48.0532 168.009 47.8547C168.331 47.6563 168.586 47.3869 168.775 47.0466C168.964 46.6969 169.058 46.2952 169.058 45.8415C169.058 45.3973 168.964 45.0003 168.775 44.6506C168.586 44.3008 168.331 44.0315 168.009 43.8424C167.688 43.6439 167.319 43.5447 166.903 43.5447C166.478 43.5447 166.105 43.6439 165.783 43.8424C165.462 44.0315 165.212 44.3008 165.032 44.6506C164.852 45.0003 164.763 45.402 164.763 45.8557C164.763 46.2999 164.848 46.6969 165.018 47.0466C165.197 47.3869 165.448 47.6563 165.769 47.8547C166.1 48.0532 166.473 48.1525 166.889 48.1525ZM171.809 49.2158V39.0928H173.085V49.2158H171.809ZM174.967 49.2158V42.4813H176.243V49.2158H174.967ZM175.605 41.1345C175.368 41.1345 175.174 41.0588 175.023 40.9076C174.872 40.7469 174.796 40.5484 174.796 40.3121C174.796 40.0853 174.872 39.8963 175.023 39.745C175.174 39.5843 175.368 39.504 175.605 39.504C175.841 39.504 176.035 39.5843 176.186 39.745C176.337 39.8963 176.413 40.0853 176.413 40.3121C176.413 40.5484 176.337 40.7469 176.186 40.9076C176.035 41.0588 175.841 41.1345 175.605 41.1345ZM181.2 49.3576C180.538 49.3576 179.938 49.2016 179.399 48.8897C178.87 48.5778 178.449 48.1572 178.137 47.6279C177.835 47.0891 177.683 46.4937 177.683 45.8415C177.683 45.1799 177.835 44.5844 178.137 44.0551C178.449 43.5258 178.87 43.1099 179.399 42.8074C179.938 42.4955 180.538 42.3396 181.2 42.3396C181.719 42.3396 182.201 42.4388 182.646 42.6373C183.09 42.8263 183.473 43.1052 183.794 43.4738L182.943 44.3245C182.735 44.0787 182.48 43.8944 182.178 43.7715C181.885 43.6392 181.559 43.573 181.2 43.573C180.774 43.573 180.396 43.6723 180.065 43.8708C179.735 44.0598 179.475 44.3245 179.286 44.6647C179.097 45.005 179.002 45.3973 179.002 45.8415C179.002 46.2857 179.097 46.678 179.286 47.0183C179.475 47.3585 179.735 47.6279 180.065 47.8264C180.396 48.0249 180.774 48.1241 181.2 48.1241C181.559 48.1241 181.885 48.0627 182.178 47.9398C182.48 47.8075 182.74 47.6185 182.958 47.3727L183.794 48.2234C183.482 48.5825 183.099 48.8614 182.646 49.0599C182.201 49.2584 181.719 49.3576 181.2 49.3576ZM187.785 49.3576C187.171 49.3576 186.613 49.2064 186.112 48.9039C185.611 48.592 185.214 48.1714 184.921 47.6421C184.638 47.1128 184.496 46.5173 184.496 45.8557C184.496 45.194 184.638 44.5986 184.921 44.0693C185.214 43.54 185.606 43.1193 186.098 42.8074C186.599 42.4955 187.161 42.3396 187.785 42.3396C188.295 42.3396 188.749 42.4483 189.146 42.6657C189.553 42.8736 189.879 43.1666 190.124 43.5447C190.37 43.9133 190.507 44.3434 190.536 44.8349V46.8623C190.507 47.3443 190.37 47.7744 190.124 48.1525C189.888 48.5306 189.567 48.8283 189.16 49.0457C188.763 49.2536 188.305 49.3576 187.785 49.3576ZM187.998 48.1525C188.631 48.1525 189.141 47.9398 189.529 47.5145C189.916 47.0797 190.11 46.5268 190.11 45.8557C190.11 45.3925 190.02 44.9908 189.841 44.6506C189.671 44.3008 189.425 44.0315 189.104 43.8424C188.782 43.6439 188.409 43.5447 187.984 43.5447C187.558 43.5447 187.18 43.6439 186.849 43.8424C186.528 44.0409 186.273 44.315 186.084 44.6647C185.904 45.005 185.814 45.3973 185.814 45.8415C185.814 46.2952 185.904 46.6969 186.084 47.0466C186.273 47.3869 186.533 47.6563 186.863 47.8547C187.194 48.0532 187.572 48.1525 187.998 48.1525ZM190.025 49.2158V47.4011L190.266 45.7564L190.025 44.126V42.4813H191.315V49.2158H190.025ZM194.18 49.2158V39.66H195.456V49.2158H194.18ZM192.522 43.6439V42.4813H197.115V43.6439H192.522ZM198.379 49.2158V42.4813H199.655V49.2158H198.379ZM199.017 41.1345C198.781 41.1345 198.587 41.0588 198.436 40.9076C198.285 40.7469 198.209 40.5484 198.209 40.3121C198.209 40.0853 198.285 39.8963 198.436 39.745C198.587 39.5843 198.781 39.504 199.017 39.504C199.254 39.504 199.447 39.5843 199.599 39.745C199.75 39.8963 199.825 40.0853 199.825 40.3121C199.825 40.5484 199.75 40.7469 199.599 40.9076C199.447 41.0588 199.254 41.1345 199.017 41.1345ZM204.612 49.3576C203.951 49.3576 203.355 49.2016 202.826 48.8897C202.297 48.5778 201.876 48.1572 201.564 47.6279C201.252 47.0891 201.096 46.4889 201.096 45.8273C201.096 45.1751 201.252 44.5891 201.564 44.0693C201.876 43.54 202.297 43.1193 202.826 42.8074C203.355 42.4955 203.951 42.3396 204.612 42.3396C205.265 42.3396 205.855 42.4955 206.385 42.8074C206.923 43.1099 207.349 43.5258 207.661 44.0551C207.973 44.5844 208.128 45.1751 208.128 45.8273C208.128 46.4889 207.973 47.0891 207.661 47.6279C207.349 48.1572 206.923 48.5778 206.385 48.8897C205.855 49.2016 205.265 49.3576 204.612 49.3576ZM204.612 48.1241C205.038 48.1241 205.416 48.0249 205.747 47.8264C206.077 47.6279 206.337 47.3585 206.526 47.0183C206.715 46.6685 206.81 46.2716 206.81 45.8273C206.81 45.3925 206.711 45.005 206.512 44.6647C206.323 44.3245 206.063 44.0598 205.732 43.8708C205.411 43.6723 205.038 43.573 204.612 43.573C204.187 43.573 203.809 43.6723 203.478 43.8708C203.147 44.0598 202.887 44.3245 202.698 44.6647C202.509 45.005 202.415 45.3925 202.415 45.8273C202.415 46.2716 202.509 46.6685 202.698 47.0183C202.887 47.3585 203.147 47.6279 203.478 47.8264C203.809 48.0249 204.187 48.1241 204.612 48.1241ZM214.33 49.2158V45.2886C214.33 44.7782 214.169 44.3575 213.848 44.0267C213.527 43.6959 213.111 43.5305 212.6 43.5305C212.26 43.5305 211.958 43.6061 211.693 43.7574C211.428 43.9086 211.22 44.1165 211.069 44.3812C210.918 44.6458 210.842 44.9483 210.842 45.2886L210.318 44.9908C210.318 44.4804 210.431 44.0267 210.658 43.6298C210.885 43.2328 211.201 42.9209 211.608 42.694C212.014 42.4577 212.473 42.3396 212.983 42.3396C213.493 42.3396 213.942 42.4672 214.33 42.7224C214.727 42.9776 215.039 43.3131 215.266 43.729C215.493 44.1354 215.606 44.5702 215.606 45.0334V49.2158H214.33ZM209.566 49.2158V42.4813H210.842V49.2158H209.566Z" fill="white"/>
</svg>
